<svg width="306" height="306" viewBox="0 0 306 306" fill="none" xmlns="http://www.w3.org/2000/svg">
<path d="M223.909 114.69C224.731 127.547 223.157 140.446 219.267 152.729L219.256 152.769C206.311 149.662 192.747 150.324 180.166 154.677C167.585 159.03 156.513 166.892 148.259 177.335C140.005 187.778 134.914 200.364 133.586 213.608C132.258 226.851 134.75 240.197 140.767 252.07L118.186 276.117L42.9888 196.044C32.5325 184.909 24.0047 171.997 18.7737 157.653C13.6938 143.929 11.5422 129.294 12.4572 114.69C14.2665 87.9566 25.6414 62.768 44.5015 43.731C54.1297 33.9875 65.6066 26.2637 78.2595 21.0123C90.9123 15.761 104.487 13.0878 118.186 13.1495C177.298 13.1495 220.312 60.8458 223.909 114.69ZM163.198 113.42C163.198 87.8947 143.042 67.2069 118.186 67.2069C93.3302 67.2069 73.174 87.8947 73.174 113.42C73.174 138.945 93.3244 159.627 118.186 159.627C143.048 159.627 163.198 138.939 163.198 113.42V113.42Z" fill="#F87D7D"/>
<g clip-path="url(#clip0)">
<path d="M203.502 296.139C246.247 296.139 280.898 261.487 280.898 218.742C280.898 175.997 246.247 141.346 203.502 141.346C160.757 141.346 126.105 175.997 126.105 218.742C126.105 261.487 160.757 296.139 203.502 296.139Z" fill="#99AF17"/>
<g clip-path="url(#clip1)">
<path d="M250.617 195.204C249.542 195.324 248.51 195.835 247.772 196.733C244.859 200.277 240.773 202.568 236.291 203.509C233.867 204.018 231.596 205.33 229.906 207.407C226.174 211.994 226.683 218.899 231.059 222.871C235.842 227.215 243.215 226.633 247.273 221.695C248.787 219.852 249.619 217.67 249.799 215.459C250.178 210.798 252.138 206.406 255.104 202.797C255.104 202.797 258.31 196.519 250.617 195.204Z" fill="#DC9628"/>
<path d="M208.988 207.441C210.971 204.392 213.331 199.958 213.125 196.373C213.041 194.906 214.605 193.935 215.864 194.685C221.27 197.906 228.298 205.513 214.2 220.198C208.466 226.172 204.236 222.99 203.776 218.818C203.336 214.829 206.802 210.803 208.988 207.441Z" fill="#F1B501"/>
<path d="M253.931 204.351C254.304 203.82 254.691 203.299 255.104 202.797C255.104 202.797 258.31 196.519 250.617 195.203C249.542 195.323 248.51 195.834 247.772 196.732C247.146 197.493 246.457 198.184 245.731 198.829C240.253 197.051 233.562 198.102 226.283 204.36C225.478 205.053 224.112 206.517 222.214 207.233C221.488 210.761 219.149 215.042 214.2 220.197C208.466 226.17 204.236 222.989 203.776 218.817C203.336 214.827 206.802 210.802 208.988 207.44C209.964 205.938 211.03 204.101 211.837 202.196C211.057 201.699 210.191 201.375 209.168 201.375C200.947 201.376 197.261 207.058 197.261 214.067C197.261 214.793 197.334 215.506 197.473 216.197C197.871 218.179 197.989 220.2 197.579 222.178C197.37 223.185 197.261 224.215 197.261 225.263C197.261 227.607 197.989 229.547 199.271 231.158C200.543 230.252 202.096 229.716 203.776 229.716C207.178 229.716 210.066 231.901 211.139 234.945H212.049C213.124 231.901 216.01 229.716 219.412 229.716C222.815 229.716 225.702 231.901 226.776 234.945H227.685C228.76 231.901 231.647 229.716 235.049 229.716C238.451 229.716 241.338 231.901 242.412 234.945H243.322C244.397 231.901 247.283 229.716 250.685 229.716C253.016 229.716 255.088 230.757 256.519 232.38C260.242 229.834 262.835 226.489 263.715 222.278C264.843 216.89 258.574 209.541 253.931 204.351Z" fill="#F4C44E"/>
<path d="M265.631 186.64C265.158 186.056 264.549 185.709 263.908 185.566C263.507 185.475 263.185 185.209 263.02 184.831C262.756 184.227 262.3 183.694 261.638 183.34C260.46 182.708 258.95 182.92 257.993 183.855C257.23 184.598 256.937 185.603 257.074 186.552C257.229 187.623 257.02 188.714 256.334 189.55L251.518 195.411C254.31 196.118 255.377 197.57 255.667 199.012L260.566 193.05C261.253 192.215 262.281 191.8 263.358 191.748C264.314 191.702 265.241 191.221 265.824 190.329C266.553 189.206 266.474 187.68 265.631 186.64Z" fill="#D2D5D7"/>
<path d="M250.617 195.204C249.542 195.324 248.51 195.835 247.772 196.733C244.859 200.277 240.773 202.568 236.291 203.509C233.867 204.018 231.596 205.33 229.906 207.407C226.174 211.994 226.683 218.899 231.059 222.871C235.842 227.215 243.215 226.633 247.273 221.695C248.787 219.852 249.619 217.67 249.799 215.459C250.178 210.798 252.138 206.406 255.104 202.797C255.104 202.797 258.31 196.519 250.617 195.204Z" fill="#DC9628"/>
</g>
<g clip-path="url(#clip2)">
<path d="M181.26 221.81H163.907V213.658C163.907 208.302 161.82 203.268 158.035 199.48L154.332 195.78H190.835L187.132 199.482C183.345 203.268 181.26 208.305 181.26 213.66V221.81Z" fill="#43A047"/>
<path d="M198.56 200.064C197.126 201.498 195.219 202.287 193.191 202.287C191.1 202.287 189.11 201.4 187.692 199.897C186.989 200.046 186.295 200.118 185.599 200.118C183.241 200.118 180.961 199.328 179.091 197.91C177.221 199.33 174.941 200.118 172.584 200.12C170.226 200.118 167.944 199.33 166.076 197.91C164.206 199.33 161.926 200.118 159.569 200.12C158.872 200.12 158.178 200.046 157.475 199.897C156.044 201.422 154.07 202.287 151.977 202.287C149.948 202.287 148.042 201.498 146.608 200.064C145.174 198.63 144.384 196.723 144.384 194.695C144.387 191.682 146.178 188.999 148.829 187.789C149.477 183.146 153.039 179.455 157.582 178.608C158.519 173.574 162.944 169.75 168.245 169.75C169.744 169.75 171.198 170.064 172.584 170.687C173.97 170.064 175.425 169.75 176.922 169.75C182.224 169.75 186.648 173.574 187.586 178.608C192.143 179.457 195.707 183.164 196.345 187.791C198.991 189.003 200.783 191.682 200.783 194.693C200.783 196.723 199.993 198.63 198.56 200.064Z" fill="#9CCC65"/>
<path d="M196.345 187.791C196.211 186.81 195.92 185.884 195.54 185.005C193.854 185.147 192.215 185.55 190.683 186.226C188.77 185.383 186.694 184.945 184.562 184.945C182.013 184.945 179.484 185.598 177.254 186.812C176.629 186.713 175.994 186.661 175.356 186.661C172.161 186.661 169.163 187.899 166.911 190.149C165.601 191.459 164.681 193.034 164.1 194.734C162.686 195.398 161.15 195.78 159.569 195.782C158.872 195.782 158.178 195.708 157.475 195.558C156.044 197.083 154.07 197.949 151.977 197.949C149.948 197.949 148.042 197.159 146.608 195.726C145.693 194.81 145.072 193.689 144.721 192.478C144.504 193.183 144.384 193.927 144.384 194.695C144.384 196.723 145.174 198.63 146.608 200.064C148.042 201.498 149.948 202.287 151.977 202.287C154.07 202.287 156.044 201.422 157.475 199.897C158.178 200.046 158.872 200.118 159.569 200.12C161.417 200.12 163.211 199.619 164.805 198.726C165.245 198.487 165.673 198.218 166.076 197.91C167.946 199.33 170.226 200.118 172.584 200.12C174.941 200.12 177.221 199.33 179.091 197.91C180.961 199.33 183.241 200.118 185.599 200.118C186.295 200.118 186.987 200.044 187.692 199.897C189.11 201.4 191.1 202.287 193.191 202.287C195.219 202.287 197.126 201.498 198.56 200.064C199.993 198.63 200.783 196.723 200.783 194.693C200.783 191.682 198.991 189.003 196.345 187.791Z" fill="#7CB342"/>
<path d="M166.076 178.426H170.415V182.765H166.076V178.426Z" fill="white"/>
<path d="M157.4 187.103H161.738V191.441H157.4V187.103Z" fill="white"/>
<path d="M176.877 238.465L164.606 226.194L170.369 220.43C174.157 216.643 176.241 211.608 176.241 206.253V201.016L202.052 226.827H196.815C191.462 226.827 186.425 228.912 182.638 232.699L176.877 238.465Z" fill="#66BB6A"/>
<path d="M176.243 201.018V206.255C176.243 208.294 175.937 210.285 175.354 212.179C176.601 213.122 177.985 213.881 179.467 214.402C180.215 216.526 181.427 218.472 183.015 220.059C184.601 221.645 186.547 222.858 188.67 223.604C188.718 223.738 188.896 223.875 189.128 224.012C186.733 225.005 184.532 226.472 182.642 228.361L176.879 234.124L166.777 224.022L164.608 226.192L176.879 238.462L182.642 232.699C186.43 228.912 191.464 226.827 196.82 226.827H202.056L176.243 201.018Z" fill="#43A047"/>
<path d="M204.486 235.319C202.458 235.319 200.551 234.53 199.117 233.096C197.638 231.617 196.859 229.584 196.92 227.517C196.316 227.124 195.776 226.686 195.284 226.194C193.616 224.525 192.562 222.356 192.245 220.031C189.918 219.715 187.748 218.658 186.082 216.992C184.417 215.324 183.36 213.153 183.044 210.827C180.716 210.511 178.547 209.454 176.881 207.788C176.388 207.294 175.95 206.754 175.558 206.15C173.467 206.216 171.458 205.43 169.979 203.951C168.545 202.517 167.755 200.61 167.755 198.582C167.755 196.554 168.545 194.647 169.979 193.214C172.111 191.083 175.273 190.455 178.005 191.472C181.747 188.65 186.874 188.554 190.685 191.17C194.907 188.272 200.742 188.697 204.49 192.446C205.549 193.505 206.356 194.756 206.896 196.177C208.316 196.717 209.566 197.524 210.627 198.582C214.377 202.331 214.8 208.163 211.902 212.387C214.525 216.209 214.425 221.35 211.603 225.072C212.618 227.804 211.989 230.964 209.861 233.094C208.421 234.53 206.514 235.319 204.486 235.319V235.319Z" fill="#9CCC65"/>
<path d="M193.75 200.12L196.817 197.052L199.885 200.12L196.818 203.187L193.75 200.12Z" fill="white"/>
<path d="M191.843 208.795L194.91 205.728L197.978 208.795L194.91 211.863L191.843 208.795Z" fill="white"/>
<path d="M181.478 200.118L184.546 197.05L187.614 200.118L184.546 203.186L181.478 200.118Z" fill="white"/>
<path d="M209.857 228.758C208.421 230.191 206.514 230.981 204.486 230.981C202.458 230.981 200.551 230.191 199.117 228.758C197.638 227.278 196.859 225.246 196.92 223.179C196.316 222.786 195.776 222.348 195.284 221.855C193.616 220.187 192.562 218.018 192.245 215.693C189.918 215.376 187.748 214.32 186.082 212.654C184.417 210.986 183.36 208.814 183.044 206.489C180.716 206.172 178.547 205.116 176.881 203.45C176.388 202.955 175.95 202.415 175.558 201.812C173.467 201.877 171.458 201.092 169.979 199.613C169.074 198.708 168.46 197.606 168.105 196.413C167.896 197.112 167.753 197.832 167.753 198.582C167.753 200.61 168.542 202.517 169.977 203.951C171.456 205.43 173.464 206.213 175.556 206.15C175.948 206.754 176.386 207.294 176.879 207.788C178.547 209.454 180.716 210.508 183.041 210.827C183.358 213.153 184.415 215.324 186.08 216.992C187.748 218.658 189.918 219.712 192.243 220.031C192.56 222.356 193.616 224.528 195.282 226.194C195.774 226.686 196.316 227.124 196.918 227.517C196.859 229.584 197.638 231.617 199.115 233.096C200.549 234.53 202.455 235.319 204.484 235.319C206.512 235.319 208.419 234.53 209.854 233.096C211.859 231.09 212.514 228.17 211.737 225.556C211.39 226.734 210.77 227.842 209.857 228.758V228.758Z" fill="#7CB342"/>
<path d="M176.922 174.088H181.26V178.426H176.922V174.088Z" fill="white"/>
<path d="M205.121 202.287H209.46V206.625H205.121V202.287Z" fill="white"/>
<path d="M202.054 217.48H206.392V221.819H202.054V217.48Z" fill="white"/>
</g>
<path d="M259.84 226.493H133.51V234.984H165.719V248.224C165.719 249.653 166.847 250.788 168.267 250.788H259.84C261.26 250.788 262.388 249.653 262.388 248.224V229.015C262.388 227.628 261.26 226.493 259.84 226.493Z" fill="#956D0A"/>
<path d="M214.03 277.628C224.636 277.628 233.234 268.978 233.234 258.308C233.234 247.638 224.636 238.988 214.03 238.988C203.423 238.988 194.825 247.638 194.825 258.308C194.825 268.978 203.423 277.628 214.03 277.628Z" fill="#F9B54C"/>
<path d="M214.03 268.142C219.397 268.142 223.748 263.791 223.748 258.424C223.748 253.057 219.397 248.706 214.03 248.706C208.663 248.706 204.312 253.057 204.312 258.424C204.312 263.791 208.663 268.142 214.03 268.142Z" fill="#324A5E"/>
</g>
<defs>
<clipPath id="clip0">
<rect width="154.793" height="154.793" fill="white" transform="translate(126.105 141.346)"/>
</clipPath>
<clipPath id="clip1">
<rect width="74.2728" height="74.5042" fill="white" transform="translate(192.049 176.284)"/>
</clipPath>
<clipPath id="clip2">
<rect width="69.4139" height="69.4139" fill="white" transform="translate(144.384 169.343)"/>
</clipPath>
</defs>
</svg>
